<?xml version="1.0" encoding="utf-8"?>
<!-- Svg Vector Icons : http://www.onlinewebfonts.com/icon -->
<!DOCTYPE svg PUBLIC "-//W3C//DTD SVG 1.1//EN" "http://www.w3.org/Graphics/SVG/1.1/DTD/svg11.dtd">
<svg version="1.1" xmlns="http://www.w3.org/2000/svg" xmlns:xlink="http://www.w3.org/1999/xlink" x="0px" y="0px" viewBox="0 0 256 256" enable-background="new 0 0 256 256" xml:space="preserve">
<metadata> Svg Vector Icons : http://www.onlinewebfonts.com/icon </metadata>
<g><g><path fill="#000000" d="M240.2,117.5l-98.3-98.3c-7.7-7.7-20.1-7.7-27.8,0l-98.3,98.3c-7.7,7.7-7.7,20.1,0,27.8c7.7,7.7,20.1,7.7,27.8,0l64.8-64.8v142.4c0,10.9,8.8,19.7,19.7,19.7c10.9,0,19.7-8.8,19.7-19.7V80.5l64.8,64.8c3.9,3.8,8.9,5.8,13.9,5.8c5,0,10.1-1.9,13.9-5.8C247.9,137.6,247.9,125.1,240.2,117.5L240.2,117.5z"/></g></g>
</svg>